<svg width="42" height="41" viewBox="0 0 42 41" fill="none" xmlns="http://www.w3.org/2000/svg">
<g clip-path="url(#clip0_169_110)">
<path d="M36.2 16.8412V30.1624C36.2 31.3138 35.5494 32.3665 34.5195 32.8814L22.3595 38.9614C21.5037 39.3893 20.4963 39.3893 19.6405 38.9614L7.48047 32.8814C6.45057 32.3665 5.8 31.3138 5.8 30.1624V16.8412M36.2 9.24118L22.3595 2.32094C21.5037 1.89302 20.4963 1.89302 19.6405 2.32094L5.8 9.24118M36.2 9.24118L21 16.8412M36.2 9.24118L40 14.9412L24.8 22.5412L21 16.8412M21 16.8412L5.8 9.24118M21 16.8412L17.2 22.5412L2 14.9412L5.8 9.24118" stroke="#595959" stroke-width="2.28" stroke-linejoin="round"/>
</g>
<defs>
<clipPath id="clip0_169_110">
<rect width="40.98" height="40.98" fill="white" transform="translate(0.97998)"/>
</clipPath>
</defs>
</svg>
