<svg width="40" height="44" viewBox="0 0 40 44" fill="none" xmlns="http://www.w3.org/2000/svg">
<path d="M2.97426 26.7702L2.1935 26.1069H2.1935L2.97426 26.7702ZM4.97606 22.1223L3.95807 22.007L4.97606 22.1223ZM35.3251 22.1223L36.3431 22.007L35.3251 22.1223ZM37.3269 26.7702L38.1077 26.1069L37.3269 26.7702ZM34.54 15.1911L33.522 15.3064L34.54 15.1911ZM5.76123 15.1911L6.77922 15.3064L5.76123 15.1911ZM27.9399 38.7862C28.1385 38.2564 27.87 37.6659 27.3401 37.4673C26.8103 37.2688 26.2198 37.5373 26.0212 38.0671L27.9399 38.7862ZM14.2799 38.0671C14.0814 37.5373 13.4909 37.2688 12.9611 37.4673C12.4312 37.6659 12.1627 38.2564 12.3612 38.7862L14.2799 38.0671ZM34.1973 32.8488H6.10386V34.8978H34.1973V32.8488ZM33.522 15.3064L34.3071 22.2376L36.3431 22.007L35.5579 15.0758L33.522 15.3064ZM5.99405 22.2376L6.77922 15.3064L4.74324 15.0758L3.95807 22.007L5.99405 22.2376ZM3.75502 27.4336C4.99714 25.9716 5.77634 24.1594 5.99405 22.2376L3.95807 22.007C3.78557 23.5297 3.16872 24.9591 2.1935 26.1069L3.75502 27.4336ZM34.3071 22.2376C34.5248 24.1594 35.304 25.9716 36.5462 27.4336L38.1077 26.1069C37.1325 24.9591 36.5156 23.5297 36.3431 22.007L34.3071 22.2376ZM6.10386 32.8488C3.46338 32.8488 1.92904 29.5828 3.75502 27.4336L2.1935 26.1069C-0.685958 29.4961 1.5987 34.8978 6.10386 34.8978V32.8488ZM34.1973 34.8978C38.7025 34.8978 40.9871 29.4961 38.1077 26.1069L36.5462 27.4336C38.3722 29.5828 36.8378 32.8488 34.1973 32.8488V34.8978ZM35.5579 15.0758C34.6501 7.06144 28.0469 0.9755 20.1506 0.9755V3.0245C26.9573 3.0245 32.726 8.28025 33.522 15.3064L35.5579 15.0758ZM6.77922 15.3064C7.57514 8.28025 13.3439 3.0245 20.1506 3.0245V0.9755C12.2543 0.9755 5.6511 7.06144 4.74324 15.0758L6.77922 15.3064ZM26.0212 38.0671C25.1827 40.3045 22.8934 41.9555 20.1506 41.9555V44.0045C23.7143 44.0045 26.7901 41.8544 27.9399 38.7862L26.0212 38.0671ZM20.1506 41.9555C17.4078 41.9555 15.1184 40.3045 14.2799 38.0671L12.3612 38.7862C13.5111 41.8544 16.5869 44.0045 20.1506 44.0045V41.9555Z" fill="#595959"/>
</svg>
