<svg width="42" height="41" viewBox="0 0 42 41" fill="none" xmlns="http://www.w3.org/2000/svg">
<path d="M26.3434 11.9525C26.3434 15.0173 23.8589 17.5019 20.7941 17.5019V20.0631C25.2734 20.0631 28.9047 16.4319 28.9047 11.9525H26.3434ZM20.7941 17.5019C17.7292 17.5019 15.2447 15.0173 15.2447 11.9525H12.6834C12.6834 16.4319 16.3147 20.0631 20.7941 20.0631V17.5019ZM15.2447 11.9525C15.2447 8.88766 17.7292 6.40312 20.7941 6.40312V3.84187C16.3147 3.84187 12.6834 7.47312 12.6834 11.9525H15.2447ZM20.7941 6.40312C23.8589 6.40312 26.3434 8.88766 26.3434 11.9525H28.9047C28.9047 7.47312 25.2734 3.84187 20.7941 3.84187V6.40312ZM31.4659 29.8812C31.4659 30.7852 30.6999 31.9482 28.673 32.9617C26.7228 33.9368 23.9389 34.5769 20.7941 34.5769V37.1381C24.2503 37.1381 27.4427 36.4404 29.8185 35.2525C32.1176 34.103 34.0272 32.2779 34.0272 29.8812H31.4659ZM20.7941 34.5769C17.6492 34.5769 14.8653 33.9368 12.9151 32.9617C10.8882 31.9482 10.1222 30.7852 10.1222 29.8812H7.56093C7.56093 32.2779 9.47053 34.103 11.7696 35.2525C14.1454 36.4404 17.3378 37.1381 20.7941 37.1381V34.5769ZM10.1222 29.8812C10.1222 28.9773 10.8882 27.8142 12.9151 26.8008C14.8653 25.8257 17.6492 25.1856 20.7941 25.1856V22.6244C17.3378 22.6244 14.1454 23.3221 11.7696 24.51C9.47053 25.6595 7.56093 27.4846 7.56093 29.8812H10.1222ZM20.7941 25.1856C23.9389 25.1856 26.7228 25.8257 28.673 26.8008C30.6999 27.8142 31.4659 28.9773 31.4659 29.8812H34.0272C34.0272 27.4846 32.1176 25.6595 29.8185 24.51C27.4427 23.3221 24.2503 22.6244 20.7941 22.6244V25.1856Z" fill="#595959"/>
</svg>
