<svg width="41" height="41" viewBox="0 0 41 41" fill="none" xmlns="http://www.w3.org/2000/svg">
<path d="M2 0.715814C1.29076 0.715814 0.715814 1.29076 0.715814 2C0.715814 2.70924 1.29076 3.28419 2 3.28419V0.715814ZM9.317 11.6913C8.60777 11.6913 8.03282 12.2663 8.03282 12.9755C8.03282 13.6847 8.60777 14.2597 9.317 14.2597V11.6913ZM37.6704 14.2597C38.3796 14.2597 38.9546 13.6847 38.9546 12.9755C38.9546 12.2663 38.3796 11.6913 37.6704 11.6913V14.2597ZM17.1791 35.8411C17.1791 36.6473 16.5255 37.3008 15.7194 37.3008V39.8692C17.944 39.8692 19.7474 38.0658 19.7474 35.8411H17.1791ZM15.7194 37.3008C14.9132 37.3008 14.2597 36.6473 14.2597 35.8411H11.6913C11.6913 38.0658 13.4947 39.8692 15.7194 39.8692V37.3008ZM14.2597 35.8411C14.2597 35.035 14.9132 34.3815 15.7194 34.3815V31.8131C13.4947 31.8131 11.6913 33.6165 11.6913 35.8411H14.2597ZM15.7194 34.3815C16.5255 34.3815 17.1791 35.035 17.1791 35.8411H19.7474C19.7474 33.6165 17.944 31.8131 15.7194 31.8131V34.3815ZM33.6423 35.8411C33.6423 36.6473 32.9888 37.3008 32.1826 37.3008V39.8692C34.4073 39.8692 36.2107 38.0658 36.2107 35.8411H33.6423ZM32.1826 37.3008C31.3765 37.3008 30.723 36.6473 30.723 35.8411H28.1546C28.1546 38.0658 29.958 39.8692 32.1826 39.8692V37.3008ZM30.723 35.8411C30.723 35.035 31.3765 34.3815 32.1826 34.3815V31.8131C29.958 31.8131 28.1546 33.6165 28.1546 35.8411H30.723ZM32.1826 34.3815C32.9888 34.3815 33.6423 35.035 33.6423 35.8411H36.2107C36.2107 33.6165 34.4073 31.8131 32.1826 31.8131V34.3815ZM9.317 6.94269H31.268V4.37432H9.317V6.94269ZM37.3008 12.9755V22.1218H39.8692V12.9755H37.3008ZM31.268 28.1546H16.634V30.723H31.268V28.1546ZM10.6012 22.1218V5.6585H8.03282V22.1218H10.6012ZM5.6585 0.715814H2V3.28419H5.6585V0.715814ZM9.317 14.2597H37.6704V11.6913H9.317V14.2597ZM10.6012 5.6585C10.6012 2.92873 8.38827 0.715814 5.6585 0.715814V3.28419C6.9698 3.28419 8.03282 4.3472 8.03282 5.6585H10.6012ZM16.634 28.1546C13.3022 28.1546 10.6012 25.4536 10.6012 22.1218H8.03282C8.03282 26.8721 11.8837 30.723 16.634 30.723V28.1546ZM37.3008 22.1218C37.3008 25.4536 34.5999 28.1546 31.268 28.1546V30.723C36.0183 30.723 39.8692 26.8721 39.8692 22.1218H37.3008ZM31.268 6.94269C34.5999 6.94269 37.3008 9.64367 37.3008 12.9755H39.8692C39.8692 8.2252 36.0183 4.37432 31.268 4.37432V6.94269Z" fill="#595959"/>
</svg>
