<svg width="42" height="41" viewBox="0 0 42 41" fill="none" xmlns="http://www.w3.org/2000/svg">
<path d="M19.1031 4.89594C19.6038 3.3549 21.7839 3.35491 22.2846 4.89594L24.9186 13.0025C25.1425 13.6916 25.7848 14.1582 26.5094 14.1582H35.0331C36.6535 14.1582 37.3272 16.2317 36.0163 17.1841L29.1204 22.1942C28.5342 22.6201 28.2889 23.3751 28.5128 24.0643L31.1468 32.1708C31.6475 33.7118 29.8837 34.9933 28.5728 34.0409L21.677 29.0308C21.0908 28.6049 20.2969 28.6049 19.7107 29.0308L12.8149 34.0409C11.504 34.9933 9.74021 33.7118 10.2409 32.1708L12.8749 24.0643C13.0988 23.3751 12.8535 22.6201 12.2673 22.1942L5.37144 17.1841C4.06056 16.2317 4.73427 14.1582 6.35461 14.1582H14.8783C15.6029 14.1582 16.2452 13.6916 16.4691 13.0025L19.1031 4.89594Z" fill="#FFC400"/>
</svg>
