<svg width="42" height="41" viewBox="0 0 42 41" fill="none" xmlns="http://www.w3.org/2000/svg">
<path d="M29.3715 3.41498C25.8455 3.41498 22.7583 4.95692 20.834 7.56328C18.9096 4.95692 15.8224 3.41498 12.2965 3.41498C9.48972 3.4182 6.79884 4.55348 4.81417 6.57176C2.8295 8.59004 1.71312 11.3265 1.70996 14.1808C1.70996 26.3357 19.4321 36.1743 20.1868 36.5806C20.3857 36.6894 20.6081 36.7464 20.834 36.7464C21.0598 36.7464 21.2822 36.6894 21.4811 36.5806C22.2358 36.1743 39.958 26.3357 39.958 14.1808C39.9548 11.3265 38.8384 8.59004 36.8538 6.57176C34.8691 4.55348 32.1782 3.4182 29.3715 3.41498ZM20.834 33.7676C17.7161 31.92 4.44196 23.5036 4.44196 14.1808C4.44467 12.0632 5.27307 10.0331 6.74548 8.53579C8.2179 7.03843 10.2141 6.19601 12.2965 6.19325C15.6175 6.19325 18.4059 7.99218 19.5704 10.8816C19.6733 11.1364 19.8484 11.3543 20.0734 11.5076C20.2984 11.661 20.5631 11.7429 20.834 11.7429C21.1048 11.7429 21.3696 11.661 21.5945 11.5076C21.8195 11.3543 21.9946 11.1364 22.0975 10.8816C23.262 7.98697 26.0504 6.19325 29.3715 6.19325C31.4538 6.19601 33.45 7.03843 34.9224 8.53579C36.3949 10.0331 37.2232 12.0632 37.226 14.1808C37.226 23.4897 23.9484 31.9183 20.834 33.7676Z" fill="#595959"/>
</svg>
